<?xml version="1.0" encoding="UTF-8" standalone="no"?>
<svg
   xmlns:dc="http://purl.org/dc/elements/1.1/"
   xmlns:cc="http://creativecommons.org/ns#"
   xmlns:rdf="http://www.w3.org/1999/02/22-rdf-syntax-ns#"
   xmlns:svg="http://www.w3.org/2000/svg"
   xmlns="http://www.w3.org/2000/svg"
   xmlns:sodipodi="http://sodipodi.sourceforge.net/DTD/sodipodi-0.dtd"
   xmlns:inkscape="http://www.inkscape.org/namespaces/inkscape"
   width="48.366024mm"
   height="92.341927mm"
   viewBox="0 0 48.366024 92.341927"
   version="1.1"
   id="svg8"
   sodipodi:docname="loi.svg"
   inkscape:version="1.0.1 (c497b03c, 2020-09-10)">
  <defs
     id="defs2" />
  <sodipodi:namedview
     id="base"
     pagecolor="#ffffff"
     bordercolor="#666666"
     borderopacity="1.0"
     inkscape:pageopacity="0.0"
     inkscape:pageshadow="2"
     inkscape:zoom="2.1961195"
     inkscape:cx="68.233863"
     inkscape:cy="183.61349"
     inkscape:document-units="mm"
     inkscape:current-layer="layer1"
     inkscape:document-rotation="0"
     showgrid="false"
     inkscape:window-width="1434"
     inkscape:window-height="982"
     inkscape:window-x="0"
     inkscape:window-y="23"
     inkscape:window-maximized="0" />
  <metadata
     id="metadata5">
    <rdf:RDF>
      <cc:Work
         rdf:about="">
        <dc:format>image/svg+xml</dc:format>
        <dc:type
           rdf:resource="http://purl.org/dc/dcmitype/StillImage" />
      </cc:Work>
    </rdf:RDF>
  </metadata>
  <g
     inkscape:label="Calque 1"
     inkscape:groupmode="layer"
     id="layer1"
     transform="translate(-39.161321,-25.083888)">
    <path
       style="fill:#000000;fill-opacity:1;stroke:#000000;stroke-width:0.26458300000000001px;stroke-linecap:butt;stroke-linejoin:miter;stroke-opacity:1"
       d="m 77.380649,25.267151 c -5.439457,2.105595 -42.989251,13.510906 -37.549792,15.441035 -0.350933,16.318368 -1e-6,59.307614 0.175465,70.537464 -0.583398,5.71909 4.868682,8.05085 14.73917,4.03573 10.352513,-4.2112 22.98609,-8.77332 32.636738,-12.80905 -1.052798,-7.545048 -1.052798,-71.063857 -1.052798,-71.063857 -3.333861,1.228264 1.403731,1.579195 -3.158395,1.930127 -4.562123,0.350933 -5.790388,-8.071449 -5.790388,-8.071449 z"
       id="path106"
       sodipodi:nodetypes="cccsccsc" />
    <path
       style="fill:#ffffff;fill-opacity:1;stroke:#000000;stroke-width:0.34313px;stroke-linecap:butt;stroke-linejoin:miter;stroke-opacity:1"
       d="m 76.61179,63.094891 c -0.04614,-0.995004 -0.692159,-15.876779 -0.138431,-16.049823 0.553726,-0.173042 2.491776,-1.816958 2.537919,-0.821958 0.04614,0.995002 -0.138431,12.891771 0.138431,13.540685 0.32193,1.53327 -2.350946,4.036693 -2.537919,3.331096 z"
       id="path108"
       sodipodi:nodetypes="csscc" />
    <path
       style="fill:#ffffff;fill-opacity:1;stroke:#000000;stroke-width:0.34313px;stroke-linecap:butt;stroke-linejoin:miter;stroke-opacity:1"
       d="m 66.829264,51.587472 c 2.353344,-0.995001 4.6144,3.850229 4.798978,5.537406 0.184575,1.687176 0.138431,7.354364 -1.338176,8.392629 -1.476608,1.038262 -3.599233,1.211305 -4.752831,-0.562393 -1.153601,-1.773702 -2.584065,-12.45916 1.292029,-13.367642 z"
       id="path114" />
    <path
       style="fill:#000000;fill-opacity:1;stroke:#000000;stroke-width:0.19341400000000000px;stroke-linecap:butt;stroke-linejoin:miter;stroke-opacity:1"
       d="m 67.504514,54.364732 c 1.09525,-0.679291 2.147549,2.628563 2.233453,3.780405 0.08591,1.151841 0.06442,5.020849 -0.622791,5.729675 -0.687216,0.708824 -1.675089,0.826962 -2.211976,-0.383948 -0.536887,-1.210911 -1.202628,-8.505909 0.601314,-9.126132 z"
       id="path114-8" />
    <path
       style="fill:#ffffff;fill-opacity:1;stroke:#000000;stroke-width:0.34313px;stroke-linecap:butt;stroke-linejoin:miter;stroke-opacity:1"
       d="m 62.511236,67.529561 c 0,0.735436 0.692161,1.211308 0.04614,1.514134 -0.646018,0.302824 -5.629566,3.59066 -5.67571,2.595659 -0.04614,-0.995003 -0.69216,-15.87678 -0.138432,-16.049823 0.553726,-0.173043 2.491776,-1.816958 2.537919,-0.821958 0.04614,0.995001 -0.138431,12.89177 0.138431,13.540684 0.276866,0.648916 3.091647,-0.778696 3.091647,-0.778696 z"
       id="path108-0" />
    <path
       style="fill:none;stroke:#ffffff;stroke-width:1.765;stroke-linecap:butt;stroke-linejoin:miter;stroke-miterlimit:4;stroke-dasharray:none;stroke-opacity:1"
       d="m 39.830856,40.708185 c 9.255654,2.040573 9.255654,2.040573 9.255654,2.040573 l 32.434376,-9.071684 -31.937298,9.817301 -0.248539,72.449205 v 0"
       id="path146" />
  </g>
</svg>
