<?xml version="1.0" encoding="UTF-8" standalone="no"?>
<svg
   xmlns:dc="http://purl.org/dc/elements/1.1/"
   xmlns:cc="http://creativecommons.org/ns#"
   xmlns:rdf="http://www.w3.org/1999/02/22-rdf-syntax-ns#"
   xmlns:svg="http://www.w3.org/2000/svg"
   xmlns="http://www.w3.org/2000/svg"
   xmlns:sodipodi="http://sodipodi.sourceforge.net/DTD/sodipodi-0.dtd"
   xmlns:inkscape="http://www.inkscape.org/namespaces/inkscape"
   width="16"
   height="16"
   fill="currentColor"
   class="bi bi-bar-chart"
   viewBox="0 0 16 16"
   version="1.1"
   id="svg875"
   sodipodi:docname="modèle niveau.svg"
   inkscape:version="1.0.1 (c497b03c, 2020-09-10)">
  <metadata
     id="metadata881">
    <rdf:RDF>
      <cc:Work
         rdf:about="">
        <dc:format>image/svg+xml</dc:format>
        <dc:type
           rdf:resource="http://purl.org/dc/dcmitype/StillImage" />
        <dc:title></dc:title>
      </cc:Work>
    </rdf:RDF>
  </metadata>
  <defs
     id="defs879" />
  <sodipodi:namedview
     pagecolor="#ffffff"
     bordercolor="#666666"
     borderopacity="1"
     objecttolerance="10"
     gridtolerance="10"
     guidetolerance="10"
     inkscape:pageopacity="0"
     inkscape:pageshadow="2"
     inkscape:window-width="1698"
     inkscape:window-height="919"
     id="namedview877"
     showgrid="false"
     inkscape:zoom="51.931862"
     inkscape:cx="7.6322748"
     inkscape:cy="8.5237119"
     inkscape:window-x="0"
     inkscape:window-y="23"
     inkscape:window-maximized="0"
     inkscape:current-layer="svg875" />
  <path
     style="fill:#000000;stroke:#000000;stroke-width:1px;stroke-linecap:butt;stroke-linejoin:round;stroke-opacity:1;fill-opacity:1"
     d="m 0.7943383,10.230502 c 0,0 2.82353,-0.01961 3.54902,-0.0196 3.21e-4,0.714926 0.02072,3.519106 0.01961,4.351886 -0.764706,0.03922 -2.80357,-0.03816 -3.548668,-0.03817 -0.01961,-1.156863 -0.019964,-4.294118 -0.019964,-4.294118 z"
     id="path894"
     sodipodi:nodetypes="cccccc" />
  <path
     style="fill:none;stroke:#000000;stroke-width:1;stroke-linecap:butt;stroke-linejoin:round;stroke-miterlimit:4;stroke-dasharray:none;stroke-opacity:1"
     d="m 5.9502728,6.6024574 c 0,0 2.8235294,-0.03631 3.5490197,-0.036291 3.209e-4,1.3237494 0.020716,6.4667466 0.019608,8.0087126 -0.8802419,-0.0044 -2.8228258,-0.02146 -3.5679238,-0.02148 -0.019608,-1.15998 -7.04e-4,-7.9509455 -7.04e-4,-7.9509455 z"
     id="path894-0"
     sodipodi:nodetypes="cccccc"
     inkscape:transform-center-x="2.6651104"
     inkscape:transform-center-y="0.83437769" />
  <path
     style="fill:none;stroke:#000000;stroke-width:1;stroke-linecap:butt;stroke-linejoin:round;stroke-miterlimit:4;stroke-dasharray:none;stroke-opacity:1"
     d="m 11.114748,2.0321417 c 0,0 2.82353,-0.057895 3.54902,-0.057865 3.21e-4,2.1106767 0.02072,10.1226333 0.01961,12.5812513 -0.783962,-0.019 -2.784314,0.01939 -3.529412,0.01935 -0.01961,-3.41541 -0.03922,-12.5427405 -0.03922,-12.5427405 z"
     id="path894-0-9"
     sodipodi:nodetypes="cccccc"
     inkscape:transform-center-x="2.6651104"
     inkscape:transform-center-y="1.3303895" />
</svg>
